<svg xmlns="http://www.w3.org/2000/svg" viewBox="0 0 1280 980" fill="none">
  <rect width="1280" height="980" rx="48" fill="#F8FBFF" />
  <rect x="56" y="56" width="1168" height="868" rx="36" fill="#FFFFFF" stroke="#D9E6FF" stroke-width="2" />
  <path d="M120 204H1160" stroke="#E2E8F0" stroke-width="2" stroke-dasharray="10 12" />
  <path d="M120 484H1160" stroke="#E2E8F0" stroke-width="2" stroke-dasharray="10 12" />
  <path d="M120 764H1160" stroke="#E2E8F0" stroke-width="2" stroke-dasharray="10 12" />
  <rect x="120" y="118" width="330" height="268" rx="28" fill="#F8FBFF" stroke="#CBD5E1" stroke-width="2" />
  <rect x="488" y="118" width="330" height="268" rx="28" fill="#F8FBFF" stroke="#CBD5E1" stroke-width="2" />
  <rect x="856" y="118" width="304" height="548" rx="28" fill="#0F172A" />
  <rect x="120" y="442" width="330" height="364" rx="28" fill="#0F172A" />
  <rect x="488" y="442" width="330" height="364" rx="28" fill="#F8FBFF" stroke="#CBD5E1" stroke-width="2" />
  <rect x="856" y="710" width="304" height="96" rx="22" fill="#DBEAFE" />
  <rect x="120" y="842" width="1040" height="50" rx="18" fill="#EFF6FF" />
  <path d="M172 258C220 194 280 170 338 170C382 170 420 188 420 228C420 274 380 292 334 292H196" stroke="#2563EB" stroke-width="16" stroke-linecap="round" stroke-linejoin="round" />
  <path d="M228 330H390" stroke="#0F172A" stroke-width="14" stroke-linecap="round" />
  <path d="M222 560H748" stroke="#1D4ED8" stroke-width="4" stroke-dasharray="12 12" />
  <path d="M222 610H748" stroke="#1E293B" stroke-width="4" stroke-dasharray="12 12" />
  <path d="M222 660H748" stroke="#93C5FD" stroke-width="4" stroke-dasharray="12 12" />
  <circle cx="310" cy="560" r="18" fill="#DBEAFE" stroke="#2563EB" stroke-width="6" />
  <circle cx="514" cy="610" r="18" fill="#0F172A" stroke="#60A5FA" stroke-width="6" />
  <circle cx="648" cy="660" r="18" fill="#DBEAFE" stroke="#0F172A" stroke-width="6" />
  <rect x="526" y="174" width="112" height="72" rx="16" fill="#DBEAFE" />
  <rect x="656" y="174" width="112" height="72" rx="16" fill="#0F172A" />
  <rect x="526" y="258" width="242" height="72" rx="16" fill="#EFF6FF" stroke="#93C5FD" stroke-width="2" />
  <rect x="898" y="170" width="220" height="122" rx="20" fill="#172554" />
  <rect x="898" y="320" width="220" height="122" rx="20" fill="#1E40AF" />
  <rect x="898" y="470" width="220" height="122" rx="20" fill="#2563EB" />
  <path d="M918 776H1098" stroke="#1D4ED8" stroke-width="12" stroke-linecap="round" />
  <text x="148" y="162" fill="#2563EB" font-family="Arial, Helvetica, sans-serif" font-size="28" font-weight="700">Focus Areas</text>
  <text x="516" y="162" fill="#0F172A" font-family="Arial, Helvetica, sans-serif" font-size="28" font-weight="700">Engineering Stack</text>
  <text x="892" y="144" fill="#DBEAFE" font-family="Arial, Helvetica, sans-serif" font-size="26" font-weight="700">Portfolio Snapshot</text>
  <text x="148" y="492" fill="#E2E8F0" font-family="Arial, Helvetica, sans-serif" font-size="28" font-weight="700">Current Workflows</text>
  <text x="516" y="492" fill="#0F172A" font-family="Arial, Helvetica, sans-serif" font-size="28" font-weight="700">System Thinking</text>
  <text x="168" y="876" fill="#0F172A" font-family="Arial, Helvetica, sans-serif" font-size="24" font-weight="700">Secure systems • Digital design • Embedded engineering • Verification • AI-assisted tooling</text>
</svg>
